<?xml version="1.0" encoding="utf-8"?>
<!-- Generator: Adobe Illustrator 22.1.0, SVG Export Plug-In . SVG Version: 6.00 Build 0)  -->
<svg version="1.1" id="圖層_1" xmlns="http://www.w3.org/2000/svg" xmlns:xlink="http://www.w3.org/1999/xlink" x="0px" y="0px"
	 viewBox="0 0 50 50" style="enable-background:new 0 0 50 50;" xml:space="preserve">
<g>
	<g>
		<path d="M37.5,48.4c0-0.1,0-0.2,0-0.4c0-2.5,0-5,0-7.5c0-0.4,0-0.4,0.4-0.4c0.4,0,0.8,0,1.2,0c0.2,0,0.3,0.1,0.3,0.3
			c0,1.1,0,2.2,0,3.3c0,0.1,0,0.1,0,0.3c0.5-0.4,0.9-0.8,1.3-1.2c0.8-0.8,0.5-0.7,1.7-0.7c0.4,0,0.8,0,1.3,0
			c-0.3,0.3-0.6,0.6-0.9,0.9c-0.5,0.4-0.9,0.9-1.4,1.3c-0.1,0.1-0.1,0.2,0,0.3c0.8,1.2,1.7,2.4,2.5,3.6c0,0,0,0,0.1,0
			c0,0.1-0.1,0.1-0.1,0.1c-0.7,0-1.3,0-2,0c-0.6-0.8-1.1-1.7-1.7-2.5c-0.1-0.1-0.2-0.1-0.3,0c-0.3,0.2-0.5,0.5-0.5,0.9
			c0,0.3,0,0.6,0,0.9c0,0.3,0,0.6-0.1,0.8C38.7,48.4,38.1,48.4,37.5,48.4z"/>
		<path d="M16.6,48.4c0-0.6,0-1.1,0-1.7c0-2.1,0-4.1,0-6.2c0-0.4,0-0.4,0.4-0.4c0.4,0,0.8,0,1.2,0c0.3,0,0.3,0.1,0.3,0.3
			c0,1.1,0,2.1,0,3.2c0,0.1,0,0.2,0,0.4c0.3-0.2,0.5-0.4,0.7-0.6c0.4-0.4,0.7-0.7,1.1-1.1c0.1-0.1,0.2-0.2,0.3-0.2
			c0.7,0,1.3,0,2.1,0c-0.5,0.6-1,1.1-1.5,1.6c-0.2,0.2-0.4,0.4-0.6,0.5c-0.2,0.2-0.2,0.3-0.1,0.5c0.8,1.1,1.6,2.2,2.3,3.3
			c0.1,0.1,0.1,0.2,0.2,0.3c-0.7,0-1.4,0-2.1,0c-0.6-0.9-1.2-1.8-1.9-2.7c-0.4,0.2-0.6,0.5-0.6,1c0,0.6,0,1.1,0,1.7
			C17.9,48.4,17.3,48.4,16.6,48.4z"/>
		<path d="M32.4,48.4c-0.2,0-0.4-0.1-0.5-0.1c-1.5-0.5-2.6-2.1-2.3-3.7c0.3-1.7,1.7-2.9,3.4-2.9c1.5,0,3.1,1.2,3.2,2.9
			c0.2,1.8-0.9,3.3-2.6,3.7c-0.1,0-0.2,0.1-0.3,0.1C33,48.4,32.7,48.4,32.4,48.4z M34.5,45c0-0.9-0.7-1.6-1.6-1.6
			c-0.9,0-1.6,0.7-1.6,1.6c0,0.9,0.7,1.7,1.6,1.6C33.8,46.7,34.5,46,34.5,45z"/>
		<path d="M25.6,48.4c0-0.1,0-0.3,0-0.4c0-1.9,0-3.8,0-5.7c0-0.3-0.1-0.4-0.3-0.4c-0.5,0-0.9,0-1.4,0c-0.1,0-0.2-0.1-0.2-0.1
			c0-0.5,0-1,0-1.5c2.1,0,4.1,0,6.2,0c-0.2,0.5-0.3,1.1-0.5,1.6c0,0.1-0.2,0.1-0.2,0.1c-0.4,0-0.8,0-1.2,0c-0.2,0-0.3,0.1-0.3,0.3
			c0,2,0,4,0,6c0,0.1,0,0.1,0,0.2C26.8,48.4,26.2,48.4,25.6,48.4z"/>
		<path d="M9.4,48.4c0-0.1-0.1-0.3-0.1-0.4c0-1.9,0-3.8,0-5.8c0-0.3-0.1-0.4-0.3-0.3c-0.5,0-0.9,0-1.4,0c-0.2,0-0.2-0.1-0.2-0.2
			c0-0.4,0-0.8,0-1.3c0-0.1,0.1-0.2,0.2-0.2c1.9,0,3.9,0,5.9,0c-0.2,0.6-0.3,1.1-0.5,1.6c0,0.1-0.2,0.1-0.2,0.1c-0.4,0-0.7,0-1.1,0
			c-0.3,0-0.3,0.1-0.3,0.3c0,1.9,0,3.8,0,5.7c0,0.1,0,0.3-0.1,0.4C10.6,48.4,10,48.4,9.4,48.4z"/>
		<path d="M13.9,48.4c0-0.1,0-0.2,0-0.3c0-1.6,0-3.3,0-4.9c0-0.3,0.1-0.4,0.4-0.4c0.4,0,0.8,0,1.3,0c0.2,0,0.3,0.1,0.3,0.3
			c0,1.7,0,3.4,0,5c0,0.1,0,0.2,0,0.3C15.1,48.4,14.5,48.4,13.9,48.4z"/>
		<path d="M26.6,14.4c0-2.7,0-5.4,0-8.2c0-1.5,0-3,0-4.4c0-0.5,0-0.5,0.5-0.5c1.7,0,3.5,0,5.2,0c0.8,0,0.6,0,0.7,0.6
			c0.3,4,3.5,7.5,7.5,8.1c0.3,0.1,0.7,0.1,1,0.1c0.2,0,0.3,0.1,0.3,0.3c0,1.9,0,3.8,0,5.7c0,0.2-0.1,0.4-0.3,0.4
			c-3-0.1-5.7-0.9-8.2-2.6c-0.1-0.1-0.2-0.1-0.3-0.1c0,0.1-0.1,0.2-0.1,0.3c0,0.8,0,1.7,0,2.5c0,3,0,6,0,9c0,1.5,0,2.9-0.5,4.4
			c-1.4,4.3-4.3,7-8.6,8c-2,0.5-4.1,0.6-6.1-0.2c-3-1.1-5.4-2.8-6.9-5.7c-3.1-6-0.7-12.9,4.9-15.9c2.1-1.1,4.3-1.5,6.7-1.3
			c0.3,0,0.4,0.1,0.4,0.4c0,1.9,0,3.9,0,5.8c0,0.3-0.1,0.3-0.3,0.3c-3.3-0.8-6.6,1.7-6.6,5.1c0,2.8,2.1,5.1,4.9,5.4
			c2.7,0.2,5.2-1.7,5.7-4.4c0.1-0.3,0.1-0.7,0.1-1c0-4,0-7.9,0-11.9C26.6,14.5,26.6,14.5,26.6,14.4C26.6,14.4,26.6,14.4,26.6,14.4z"
			/>
		<path d="M14.8,42.1c-0.5,0-1-0.5-1-1c0-0.5,0.5-1,1-1c0.5,0,0.9,0.4,0.9,1C15.8,41.7,15.4,42.2,14.8,42.1z"/>
	</g>
</g>
</svg>
