<?xml version="1.0" encoding="utf-8"?>
<!-- Generator: Adobe Illustrator 22.1.0, SVG Export Plug-In . SVG Version: 6.00 Build 0)  -->
<svg version="1.1" id="圖層_1" xmlns="http://www.w3.org/2000/svg" xmlns:xlink="http://www.w3.org/1999/xlink" x="0px" y="0px"
	 viewBox="0 0 50 50" style="enable-background:new 0 0 50 50;" xml:space="preserve">
<g>
	<path d="M7,40c-0.1,0.1-0.1,0.3-0.1,0.5c0,0.6,0,1.1,0,1.7c0,0.6,0,1.1,0,1.7c0,0.7-0.5,1.2-1.1,1.2c-0.7,0.1-1.3-0.4-1.3-1.2
		c0-1,0-2,0-3c0-0.5-0.1-0.9-0.6-1.3c-0.7-0.6-1.3-1.3-2-2c-0.3-0.3-0.7-0.6-0.9-1c-0.4-0.6-0.1-1.3,0.4-1.6
		c0.4-0.3,1.1-0.1,1.5,0.2C3.4,35.8,4,36.4,4.6,37c0.3,0.3,0.6,0.5,0.9,0.8c0.1,0.1,0.3,0.1,0.3,0c0.7-0.7,1.3-1.3,2-2
		c0.2-0.2,0.4-0.4,0.6-0.6c0.4-0.4,0.9-0.4,1.4-0.3c0.6,0.2,0.9,1.2,0.6,1.7c-0.4,0.5-0.8,0.9-1.3,1.4C8.4,38.6,7.7,39.3,7,40z"/>
	<path d="M18.4,36.2c-0.8-0.9-1.8-1.5-3.1-1.5c-3.1-0.2-5,1.9-5,5.3c0,0.3,0,0.5,0,0.8c0.2,1.9,1.1,3.3,2.8,4
		c1.7,0.7,3.3,0.5,4.7-0.6C20,42.4,20.3,38.3,18.4,36.2z M17.2,40.8c-0.3,1.4-1.4,2.2-2.8,1.9c-1.2-0.2-1.8-1.2-1.8-2.9
		c0-1.9,1.1-3.1,2.8-2.8C16.8,37.3,17.6,38.9,17.2,40.8z"/>
	<path d="M29.2,41.7c-0.4,2.2-2.5,3.5-4.9,3.4c-2.1-0.1-3.9-1.8-4.1-3.9c-0.2-1.8-0.1-3.5-0.1-5.3c0-0.7,0.4-1.3,1.2-1.2
		c0.8,0.1,1.1,0.6,1.1,1.3c0,1.4,0,2.7,0,4.1c0,1.6,0.9,2.7,2.4,2.6c1.4,0,2.3-1,2.3-2.6c0-0.7,0-1.3,0-2c0-0.8,0-1.6,0-2.4
		c0-0.7,0.4-1.1,1.1-1.2c0.7-0.1,1.2,0.4,1.2,1C29.4,37.7,29.5,39.8,29.2,41.7z"/>
	<path d="M27.9,27.5c-0.7,0.4-1.5,0.8-2.2,1.2c-0.9,0.5-1.7,1.1-2.6,1.6c-0.6,0.4-1.3,0.6-2,0.6c-0.1,0-0.3,0-0.4,0
		c-0.1,0-0.1,0-0.2,0c-0.5,0-1-0.1-1.4-0.2c0,0,0,0,0,0c0,0,0,0,0,0c0,0,0,0,0,0c-1-0.3-1.9-0.9-2.5-1.7c-0.5-0.7-0.8-1.4-0.9-2.2
		c0-0.1,0-0.2,0-0.3c0-0.1,0-0.1,0-0.2c0-0.1,0-0.2,0-0.3c0,0,0,0,0,0c0-0.1,0-0.3,0-0.4c0,0,0-0.1,0-0.1c0-0.2,0-0.4,0.1-0.7
		c0.2-1.1,0.8-2,1.6-2.7c0.5-0.4,1.1-0.8,1.7-1.1c0.6-0.4,1.3-0.8,1.9-1.2c0.6-0.3,1.2-0.7,1.9-1c0.3-0.2,0.6-0.3,0.9-0.5
		c-0.9-0.5-1.9-1-2.8-1.6c-1.1-0.6-2.2-1.2-3.2-1.9c-0.8-0.5-1.3-1.3-1.7-2.2c-0.1-0.1-0.1-0.3-0.1-0.4c-0.2-0.5-0.3-1-0.3-1.5
		c0-2.7,2.2-4.9,4.9-4.9c0,0,0,0,0,0c0.4,0,0.7,0,1.1,0.1c0.8,0.2,1.4,0.5,2,0.9c0.6,0.3,1.3,0.7,1.9,1c0.8,0.5,1.5,1,2.3,1.4
		c0.5,0.3,1.1,0.6,1.6,0.9c0.6,0.3,1.1,0.7,1.7,1c0.9,0.5,1.9,1.1,2.8,1.6c1.6,1,2.6,2.4,3,4.3c0.2,1.1,0.2,2.2-0.1,3.2
		c-0.3,0.9-0.7,1.8-1.4,2.5c-0.4,0.5-1,0.9-1.5,1.2c-0.5,0.3-1,0.7-1.5,1c-0.8,0.5-1.7,0.9-2.5,1.4C29.1,26.7,28.5,27.1,27.9,27.5z"
		/>
	<path d="M31.8,45.1c-0.9,0-1.2-0.5-1.2-1.3c0-2.6,0-5.2,0-7.8c0-0.8,0.3-1.3,1.1-1.3c0.8,0,1.1,0.5,1.1,1.3c0,1.3,0,2.6,0,3.9
		c0,0,0,0,0,0c0,1.3,0,2.6,0,3.9C32.9,44.5,32.6,45.1,31.8,45.1z"/>
	<path d="M39.2,44.8c-0.6,0.5-1.3,0.4-1.8-0.2c-1.1-1.1-2.2-2.2-3.3-3.3c-0.9-0.9-0.9-1.8,0-2.7c1.1-1.1,2.2-2.2,3.3-3.3
		c0.7-0.6,1.4-0.7,1.9-0.2c0.5,0.7,0.4,1.3-0.2,1.8c-1,1-2,1.9-3.2,3.1C37,41,38,42,39,42.9C39.6,43.6,39.7,44.4,39.2,44.8z"/>
	<path d="M49.6,38.5C49.6,38.5,49.5,38.5,49.6,38.5c0,0.7,0,1.4,0,2.2c-0.1,2.6-2.1,4.5-4.6,4.5c-2.5,0-4.5-2-4.6-4.5
		c-0.1-1.5,0-3.1,0-4.6c0-0.8,0.3-1.3,1.2-1.3c0.8,0,1.1,0.6,1.1,1.3c0,1.4,0,2.8,0,4.2c0,1.6,0.9,2.6,2.3,2.6c1.3,0,2.3-1,2.3-2.5
		c0-1.4,0-2.7,0-4.1c0-0.8,0.2-1.4,1.2-1.5c0.8,0,1.1,0.5,1.1,1.5c0,0,0,0.1,0,0.1C49.6,37,49.6,37.8,49.6,38.5z"/>
</g>
</svg>
