<svg id="圖層_2" data-name="圖層 2" xmlns="http://www.w3.org/2000/svg" viewBox="0 0 281.29 83.19"><defs><style>.cls-1{fill:#fff;}.cls-2{fill:#e3002b;}</style></defs><title>Optoma_edit</title><path class="cls-1" d="M99,21.81c13.15,0,23.55,10.9,21.28,25.31C118.06,61,104.91,72,91.16,71.85c-13.47-.18-23.39-11.06-21.21-25C72.2,32.4,85.42,21.81,99,21.81ZM92.21,63.72c9.1,0,18.08-7.89,19.58-16.91,1.63-9.91-5-16.87-13.93-16.87S80,37.61,78.45,47C77,56,82.91,63.72,92.21,63.72Z" transform="translate(-7.25 -3.25)"/><path class="cls-1" d="M126.17,39.9h7.59l-.42,2.61c3.55-3.69,8.37-3.46,9.86-3.34,9.26.73,12.36,9.1,11.29,16.11-1.29,8.52-7.4,15.91-16.65,16.2-4.65.14-6.91-1.74-8.51-3.57l-3,18.53h-7.59Zm11.12,24.41c3.77-.06,8.1-2.41,9.45-8.92,1.13-5.46-1.49-9.09-6.33-9.09-4.21,0-8.68,3.75-9.33,9C130.26,61.88,133.76,64.35,137.29,64.31Z" transform="translate(-7.25 -3.25)"/><path class="cls-1" d="M161.65,47.07h-3.21l1.13-7.17h3.21l1.61-10.08H172L170.35,39.9h5l-1.13,7.17h-5L165.5,70.7h-7.6Z" transform="translate(-7.25 -3.25)"/><path class="cls-1" d="M174.54,55.13c1.51-9.18,9.81-16,18.42-16S208.1,46,206.74,55.26A19.13,19.13,0,0,1,188,71.48C179,71.26,173.11,63.83,174.54,55.13Zm24.66-.07c.8-5.4-2.18-8.69-7-8.78a10.7,10.7,0,0,0-10.13,9.09c-.92,5.48,2.32,8.92,6.95,8.92C194.23,64.29,198.48,60,199.2,55.06Z" transform="translate(-7.25 -3.25)"/><path class="cls-1" d="M243.62,47.76a2,2,0,0,0-1.73-1.4,5,5,0,0,0-5,2.14c-1.28,1.81-1.82,4.86-2.1,6.8l-2.41,15.4h-7.62l2.73-17.12c.6-4.13.79-7.29-2.23-7.29-4.86,0-5.88,5.66-6.44,9l-2.42,15.4h-7.59l4.87-30.83h7.6l-.33,2.23a7.6,7.6,0,0,1,6.37-3,8.05,8.05,0,0,1,6.58,3.55,12.85,12.85,0,0,1,8.9-3.55c5.21,0,7.08,3,7.81,4.5s1.27,4.32.57,9.09l-2.82,18H240.7l2.72-17.12C244.27,49,243.62,47.76,243.62,47.76Z" transform="translate(-7.25 -3.25)"/><path class="cls-1" d="M283.69,70.69h-7.57l.46-2.56a12.69,12.69,0,0,1-9.47,3.33c-6.63-.12-13.43-6.28-11.71-16.4,1.62-9.43,8.72-15.93,17.16-15.93,5.89,0,8,3.38,8,3.38l.43-2.62h7.55ZM272.62,46.26c-5.36,0-8.92,4.82-9.61,9.1-.77,4.86,1.55,8.94,6.22,8.94,4.52,0,8.78-3.8,9.6-9.07C279.76,49.29,276.69,46.26,272.62,46.26Z" transform="translate(-7.25 -3.25)"/><path class="cls-2" d="M32.57,39.64S8.49,37.06,7.28,26C6.17,16,45.18,4.34,81,3.35,137.27,1.79,168.71,18,168.71,18s-33.17-8.49-79.17-4.75c-41.35,3.36-60,12.49-62.26,18.24C25.62,35.79,32.57,39.64,32.57,39.64Z" transform="translate(-7.25 -3.25)"/></svg>