<?xml version="1.0" encoding="utf-8"?>
<!-- Generator: Adobe Illustrator 24.0.3, SVG Export Plug-In . SVG Version: 6.00 Build 0)  -->
<svg version="1.1" id="Ebene_4" xmlns="http://www.w3.org/2000/svg" xmlns:xlink="http://www.w3.org/1999/xlink" x="0px" y="0px"
	 viewBox="0 0 170.3 99.2" style="enable-background:new 0 0 170.3 99.2;" xml:space="preserve">
<style type="text/css">
	.Grün_x0020_bogenförmig{fill:url(#SVGID_1_);stroke:#FFFFFF;stroke-width:0.25;stroke-miterlimit:1;}
	.st0{fill:#FFFFFF;}
	.st1{fill:url(#SVGID_2_);}
	.st2{fill:url(#SVGID_3_);}
	.st3{fill:url(#SVGID_4_);}
	.st4{fill:url(#SVGID_5_);}
	.st5{fill:url(#SVGID_6_);}
	.st6{fill:#E60012;}
</style>
<linearGradient id="SVGID_1_" gradientUnits="userSpaceOnUse" x1="-1299.5123" y1="424.098" x2="-1298.8053" y2="423.3909">
	<stop  offset="0" style="stop-color:#00A53B"/>
	<stop  offset="0.9831" style="stop-color:#133618"/>
</linearGradient>
<rect class="st0" width="170.3" height="99.2"/>
<g>
	<radialGradient id="SVGID_2_" cx="47.4672" cy="41.8305" r="15.859" gradientUnits="userSpaceOnUse">
		<stop  offset="0" style="stop-color:#FFFFFF"/>
		<stop  offset="0.1808" style="stop-color:#FCE4D9"/>
		<stop  offset="0.4663" style="stop-color:#F6B495"/>
		<stop  offset="0.5254" style="stop-color:#F3A380"/>
		<stop  offset="0.7541" style="stop-color:#EB613B"/>
		<stop  offset="0.918" style="stop-color:#E72D1B"/>
		<stop  offset="1" style="stop-color:#E60012"/>
		<stop  offset="1" style="stop-color:#070707"/>
	</radialGradient>
	<path class="st1" d="M54.4,43.8c0.1,0.9-0.2,1.7-0.8,2.9c-0.5,1-1.3,1.7-2.1,2.7c-0.8,1-1.8,1.9-2.9,2.8c-1.1,0.8-2.1,1.7-3.4,2.2
		c-1.3,0.6-2.4,1.2-3.5,1.3c-1.1,0.1-2,0.1-2.8-0.2c-0.8-0.3-1.4-0.7-1.8-1.3c-0.4-0.6-0.6-1.4-0.6-2.3c0-0.9,0.3-1.8,0.8-2.8
		c0.5-0.9,1.1-1.9,1.9-2.8c0.8-0.9,1.7-1.8,2.7-2.6c1-0.8,2.1-1.5,3.3-2c1.2-0.6,2.3-0.9,3.3-1.1c1-0.2,2-0.2,2.8,0
		c0.8,0.2,1.6,0.5,2.1,1C53.9,42.2,54.3,42.9,54.4,43.8L54.4,43.8z M50.4,47.3c0-0.4-0.2-0.8-0.4-1c-0.2-0.3-0.6-0.5-1-0.6
		c-0.4-0.1-0.9-0.1-1.4,0c-0.5,0.1-1.1,0.2-1.6,0.5c-0.6,0.3-1.1,0.6-1.6,1c-0.5,0.4-0.9,0.8-1.3,1.3c-0.4,0.4-0.7,0.9-0.9,1.4
		c-0.2,0.5-0.3,0.9-0.3,1.4c0,0.4,0.1,0.8,0.3,1.1c0.2,0.3,0.5,0.5,0.9,0.6c0.4,0.1,0.8,0.1,1.4,0.1c0.5-0.1,1.1-0.2,1.7-0.5
		c0.6-0.3,1.2-0.6,1.7-1c0.5-0.4,1-0.8,1.4-1.3c0.4-0.5,0.7-1,0.9-1.4C50.4,48.2,50.5,47.7,50.4,47.3L50.4,47.3z"/>
	<radialGradient id="SVGID_3_" cx="11.8228" cy="23.9369" r="15.3566" gradientUnits="userSpaceOnUse">
		<stop  offset="0" style="stop-color:#FFFFFF"/>
		<stop  offset="5.756581e-02" style="stop-color:#FCE9DF"/>
		<stop  offset="0.1215" style="stop-color:#FAD6C4"/>
		<stop  offset="0.1912" style="stop-color:#F8C7AF"/>
		<stop  offset="0.2687" style="stop-color:#F7BCA0"/>
		<stop  offset="0.3601" style="stop-color:#F6B698"/>
		<stop  offset="0.5" style="stop-color:#F6B495"/>
		<stop  offset="0.5553" style="stop-color:#F3A380"/>
		<stop  offset="0.7696" style="stop-color:#EB613B"/>
		<stop  offset="0.9232" style="stop-color:#E72D1B"/>
		<stop  offset="1" style="stop-color:#E60012"/>
		<stop  offset="1" style="stop-color:#070707"/>
	</radialGradient>
	<path class="st2" d="M22,13c-3.3,2-5.2,3.1-7.6,6.1c-1,1.2-1.5,1.9-2.2,3.2c-0.3,0.7-0.7,1.8-0.7,1.8l-0.2,1.3L10.9,27l-0.1,1.5
		l0,0.5c0-0.1,0-0.3,0-0.4c0-0.1,0-0.3,0.1-0.4c0-0.1,0-0.3,0.1-0.4c0-0.1,0.1-0.3,0.1-0.4c0.4-1.5,1.1-3.1,2.1-4.9
		c1.2-2,2.1-3,3.7-4.5c1.6-1.6,2.7-2.7,4.6-4.1c1.2-0.9,4.1-2.7,5.8-2.9c0.7-0.1-1.6,0.1-2.4,0.5C23.7,11.9,23.1,12.3,22,13L22,13z"
		/>
	<radialGradient id="SVGID_4_" cx="34.3747" cy="10.2611" r="37.3583" gradientUnits="userSpaceOnUse">
		<stop  offset="0" style="stop-color:#FFFFFF"/>
		<stop  offset="4.786051e-02" style="stop-color:#FEF3EE"/>
		<stop  offset="0.1975" style="stop-color:#F9D1BE"/>
		<stop  offset="0.3118" style="stop-color:#F7BCA0"/>
		<stop  offset="0.3764" style="stop-color:#F6B495"/>
		<stop  offset="0.4551" style="stop-color:#F5AF8F"/>
		<stop  offset="0.5609" style="stop-color:#F3A07D"/>
		<stop  offset="0.682" style="stop-color:#F08861"/>
		<stop  offset="0.8146" style="stop-color:#EC653E"/>
		<stop  offset="0.9549" style="stop-color:#E72D1B"/>
		<stop  offset="1" style="stop-color:#E60012"/>
		<stop  offset="1" style="stop-color:#070707"/>
	</radialGradient>
	<path class="st3" d="M45.8,14.3L44.6,13l-1.3-1.2l-0.7-0.5l-1.5-0.6c-0.8-0.3-1.8-0.6-2.9-0.8c-1-0.1-2.7-0.4-4-0.1
		c-1.3,0.3-2.1,0.6-3.6,1.2c-1.4,0.6-2.9,1.4-4.5,2.3c-2.1,1.3-4.2,2.9-6.1,4.5c-1.9,1.7-3.6,3.4-5.1,5.3c-1.5,1.8-2.8,3.7-3.8,5.6
		c-1,1.9-1.4,3.7-1.7,5.5c-0.1,0.3,0,0.7,0,1c0,0.3,0.3,2.3,0.6,3.7c0.1,0.6,0.2,1,0.4,1.6c0.2,0.7,0.7,1.7,0.7,1.7l0.3,0.4l0.6,0.9
		c-0.2-0.3-0.4-0.7-0.5-1.1c-0.1-0.4-0.2-0.8-0.3-1.2c-0.1-0.4-0.1-0.9-0.1-1.4c0-0.5,0-1,0.1-1.5c0.3-1.8,1-3.8,2-5.8
		c1-2,2.4-4,4-5.9c1.6-1.9,3.4-3.8,5.4-5.5c2-1.7,4.1-3.3,6.4-4.7c1.8-1.1,3.6-2,5.3-2.6c1.7-0.7,3.3-1.1,4.8-1.3
		c1.5-0.2,2.8-0.1,4,0.1C44.1,12.9,45.1,13.5,45.8,14.3"/>
	<radialGradient id="SVGID_5_" cx="38.1555" cy="18.4057" r="45.4221" gradientUnits="userSpaceOnUse">
		<stop  offset="0" style="stop-color:#FFFFFF"/>
		<stop  offset="1.812009e-02" style="stop-color:#FEFAF8"/>
		<stop  offset="0.1424" style="stop-color:#FBDCCD"/>
		<stop  offset="0.2545" style="stop-color:#F8C6AF"/>
		<stop  offset="0.3494" style="stop-color:#F7B99C"/>
		<stop  offset="0.4157" style="stop-color:#F6B495"/>
		<stop  offset="0.5169" style="stop-color:#F39D78"/>
		<stop  offset="1" style="stop-color:#E60012"/>
	</radialGradient>
	<path class="st4" d="M53.9,24.2l-2.1-5.4l-0.5-1.2c-0.7-1.2-1.9-2-3.2-2.5c-1.3-0.5-3.7-0.5-5.4-0.3C40.9,15,39,15.5,37,16.3
		c-2,0.8-4.1,1.9-6.2,3.3c-2.4,1.5-4.6,3.3-6.6,5.2c-2,1.9-3.8,4-5.4,6.1C17.2,33,16,35.1,15,37.3c-1,2.2-1.5,4.3-1.7,6.2
		c0,0.7,0,1.4,0.1,2.1c0.1,0.6,0.3,1.2,0.5,1.8c0.2,0.5,0.5,1,0.9,1.5c0.4,0.4,0.8,0.8,1.2,1.1l1.6,1l1.5,0.8l1.7,0.8l1.5,0.5
		c-0.7-0.2-1.4-0.6-2-1c-0.6-0.4-1-0.9-1.4-1.5c-0.4-0.6-0.7-1.3-0.8-2c-0.2-0.7-0.3-1.6-0.2-2.5c0.1-1.8,0.6-3.8,1.4-5.9
		c0.8-2,2-4,3.5-6c1.4-2,3.1-3.9,5-5.7c1.9-1.8,4-3.4,6.2-4.9c2.2-1.4,4.4-2.5,6.4-3.2c2.1-0.7,4.8-1.2,6.5-1.2
		c1.8,0,3.3,0.4,4.5,1.2c1.2,0.8,1.5,2.2,1.9,3.8L53.9,24.2L53.9,24.2z"/>
	<radialGradient id="SVGID_6_" cx="45.431" cy="26.8466" r="36.5514" gradientUnits="userSpaceOnUse">
		<stop  offset="0" style="stop-color:#FFFFFF"/>
		<stop  offset="0.1808" style="stop-color:#FCE4D9"/>
		<stop  offset="0.4663" style="stop-color:#F6B495"/>
		<stop  offset="0.5254" style="stop-color:#F3A380"/>
		<stop  offset="0.7541" style="stop-color:#EB613B"/>
		<stop  offset="0.918" style="stop-color:#E72D1B"/>
		<stop  offset="1" style="stop-color:#E60012"/>
		<stop  offset="1" style="stop-color:#070707"/>
	</radialGradient>
	<path class="st5" d="M55.5,35.4c-0.3-1.3-0.9-2.3-1.9-3c-0.9-0.7-2.1-1-3.5-1.1c-1.3-0.1-2.9,0.1-4.5,0.7c-1.6,0.5-3.3,1.3-5.1,2.3
		c-1.7,1.1-3.4,2.3-4.8,3.7c-1.4,1.4-2.7,2.8-3.8,4.3c-1.1,1.5-1.9,3.1-2.5,4.6c-0.6,1.5-0.9,3-0.8,4.4c0.1,1.2,0.4,2.2,1,3
		c0.6,0.8,1.4,1.4,2.4,1.8c1,0.4,2.3,0.5,3.6,0.4c1.4-0.1,2.9-0.5,4.6-1.2L40,55.4l-1.4,0.5L38.2,56l-1.6,0.4L35,56.8L34.1,57
		l-1.8,0.2l-1.8,0.1l-0.3,0c-1.2-0.1-2.2-0.2-3.1-0.4c-0.9-0.2-1.7-0.7-2.4-1.2c-0.6-0.6-1.1-1.3-1.5-2.1c-0.3-0.8-0.5-1.8-0.5-2.8
		c0-1.7,0.4-3.6,1.2-5.4c0.8-1.9,1.8-3.8,3.2-5.7c1.3-1.9,3-3.7,4.8-5.4c1.8-1.7,3.8-3.2,6-4.6c2.2-1.3,4.3-2.3,6.3-3
		c2-0.7,3.9-1,5.6-1c1.7,0,3.9,0.5,5.1,1.3c1,0.7,1.6,1.1,2.3,2.3c0.1,0.2,0.1,0.5,0.2,0.7c0,0.4-0.3,2.7-0.3,3.1
		c-0.1,0.4-0.2,0.8-0.3,1.2C56.5,34.8,55.7,35,55.5,35.4"/>
	<path class="st6" d="M35.7,12.6c-0.2,0.8-0.8,1.6-1.5,2.4c-0.8,0.8-1.8,1.7-2.9,2.5c-1.2,0.8-2.5,1.6-3.9,2.3
		c-1.4,0.7-2.9,1.2-4.4,1.7c-1.5,0.4-2.8,0.6-4,0.7c-1.1,0-2.1-0.1-2.8-0.4c-0.7-0.3-1.2-0.7-1.4-1.3c-0.2-0.5-0.1-1.2,0.2-2
		c0.1-0.2,0.2-0.5,0.4-0.7c0.2-0.2,0.3-0.5,0.5-0.7c0.2-0.2,0.4-0.5,0.6-0.7c0.2-0.2,0.5-0.5,0.7-0.7l0.7-0.6l0.7-0.6l0.7-0.5
		l0.7-0.5l0.7-0.4l0.6-0.4l0.6-0.4c0,0-1.3,1-1.9,1.8c-0.4,0.4-0.6,0.8-0.8,1.2c-0.2,0.4-0.2,0.7-0.1,1c0.1,0.3,0.4,0.5,0.7,0.6
		c0.4,0.1,0.8,0.2,1.4,0.1c0.6,0,1.2-0.2,2-0.4c0.7-0.2,1.5-0.5,2.1-0.8c0.7-0.3,1.3-0.7,1.9-1.1c0.6-0.4,1.1-0.8,1.5-1.2
		c0.4-0.4,0.7-0.8,0.8-1.2c0.1-0.4,0.1-0.7,0-0.9c-0.1-0.2-0.4-0.4-0.8-0.5c-0.4-0.1-0.8-0.1-1.4,0c-0.5,0.1-1.2,0.1-1.9,0.4
		c-0.5,0.1-0.7,0.2-1.1,0.4c1.3-0.7,2.1-1,3.5-1.5c0.9-0.3,1.6-0.5,2.4-0.6c1-0.2,1.8-0.2,2.6-0.1c0.8,0.1,1.4,0.2,1.9,0.5
		c0.5,0.3,0.9,0.6,1,1C35.8,11.5,35.8,12,35.7,12.6L35.7,12.6z"/>
	<path class="st6" d="M54.1,45.5c0,0-0.3,0.9-0.6,1.4c-0.3,0.5-0.8,1.2-0.8,1.2s-0.2,0.2-0.3,0.4c-0.3,0.4-0.9,1.1-0.9,1.1l-0.7,0.8
		c-0.8,0.8-1.6,1.5-2.6,2.3c-1,0.7-2,1.4-3.1,2c-1.1,0.6-2.3,1.1-3.5,1.6c-1.2,0.4-2.4,0.8-3.7,1.1c-0.2,0.1-0.5,0.1-0.7,0.1
		c-0.2,0-0.5,0.1-0.7,0.1c-0.2,0-0.5,0.1-0.7,0.1c-0.2,0-0.5,0-0.7,0.1l-1.4,0.1l-0.3,0l-1.5,0l-1.5-0.1c0,0-0.3,0-0.4-0.1
		c-0.6-0.1-1-0.1-1.6-0.3c-0.6-0.1-1.6-0.4-1.6-0.4l-0.8-0.3L26,56.5c0.6,0.2,1.3,0.4,2,0.5c0.7,0.1,1.5,0.2,2.3,0.2
		c0.8,0,1.7,0,2.6-0.1c0.9-0.1,1.9-0.2,2.9-0.5c2.3-0.5,4.5-1.2,6.6-2.2c2.1-0.9,4.1-2.1,5.9-3.4c1.8-1.3,3.3-2.6,4.6-4.1
		C53.4,46.5,53.8,46.1,54.1,45.5C54.1,45.5,54.1,45.5,54.1,45.5L54.1,45.5z"/>
	<path class="st6" d="M41.1,10.7l1.6,0.6l1.6,0.7l0.6,0.3c0.4,0.2,0.8,0.5,1.1,0.8c0.3,0.3,0.6,0.7,0.8,1c0.2,0.4,0.3,0.8,0.4,1.3
		c0.1,0.5,0,1-0.1,1.5c-0.3,1.4-1.1,3-2.4,4.5c-1.3,1.6-3.1,3.2-5.1,4.7c-2.1,1.5-4.5,3-7.1,4.2c-2.6,1.2-5.3,2.3-8.1,3
		c-2.5,0.6-4.7,1-6.6,1c-1.9,0-3.5-0.2-4.8-0.6c-1.2-0.5-2.2-1.1-2.7-2c-0.5-0.9-0.7-1.9-0.4-3.1l0.1-0.5l0.5-1.7l0.6-1.6l0.6-1.4
		l0.5-1.1L12,22.6c0,0,0,0,0,0c-0.5,1.1-0.6,2.1-0.3,2.9c0.3,0.8,0.9,1.5,1.9,1.9c1,0.4,2.4,0.7,4,0.6c1.7,0,3.6-0.3,5.8-0.9
		c2.2-0.6,4.4-1.4,6.4-2.4c2.1-1,4-2.1,5.7-3.3c1.7-1.2,3.1-2.5,4.2-3.7c1.1-1.2,1.8-2.4,2.1-3.6c0.1-0.6,0.2-1.1,0.1-1.6
		c-0.1-0.5-0.3-0.9-0.6-1.2c-0.3-0.4-0.7-0.7-1.2-0.9c-0.3-0.2-0.7-0.3-1.1-0.4l-0.6-0.2c0.3,0,0.4,0.1,0.6,0.1c0,0,0.6,0.1,0.9,0.2
		C40.3,10.4,41.1,10.7,41.1,10.7L41.1,10.7z"/>
	<path class="st6" d="M51.7,17.8l1.2,1.5l1.1,1.6l0.5,0.8c0.1,0.3,0.3,0.5,0.4,0.8c0.1,0.3,0.2,0.6,0.2,0.9c0.1,0.3,0.1,0.6,0.1,0.9
		c0,0.3,0,0.7-0.1,1c-0.2,1.8-1.1,3.8-2.6,5.7c-1.5,2-3.5,4-6,5.9c-2.5,1.9-5.4,3.7-8.5,5.2c-3.1,1.5-6.4,2.7-9.8,3.5
		c-2.4,0.6-4.6,0.9-6.6,0.9c-2,0.1-3.7-0.1-5.2-0.4c-1.5-0.3-2.7-0.9-3.6-1.6c-0.9-0.7-1.6-1.5-2-2.5l-0.4-1.1l-0.5-1.8l-0.4-1.9
		l-0.1-0.5l-0.1-1c0-0.1,0,0,0,0c0.1,1,0.5,1.9,1.2,2.6c0.8,0.8,1.9,1.4,3.3,1.9c1.4,0.4,3.2,0.6,5.2,0.6c2-0.1,4.3-0.4,6.8-1
		c3.1-0.8,6.3-1.9,9.2-3.3c3-1.4,5.7-3.1,8.1-4.8c2.3-1.8,4.3-3.6,5.7-5.5c1.4-1.8,2.3-3.6,2.6-5.3c0.1-0.5,0.1-0.9,0.1-1.3
		c0-0.4-0.1-0.8-0.2-1.2c-0.1-0.4-0.3-0.7-0.5-1c-0.1-0.2-0.3-0.4-0.4-0.6c0,0,0,0,0,0l1,1L51.7,17.8L51.7,17.8z"/>
	<path class="st6" d="M57.5,31.6c0.1,1.5,0.2,2.4-0.1,3.9c-0.4,2.3-1,3.7-2.3,5.5c-1.3,1.9-3.1,3.8-5.3,5.6
		c-2.2,1.8-4.8,3.4-7.6,4.7c-2.8,1.3-5.8,2.4-8.8,3.1c-1.6,0.3-3.1,0.6-4.5,0.7c-1.4,0.1-2.7,0.1-3.9,0c-1.2-0.1-2.2-0.4-3.2-0.7
		c-0.9-0.3-1.8-0.7-2.5-1.2L17.9,52l-1.2-1.1c0,0-0.8-0.8-1.3-1.4c-0.3-0.4-0.8-1.1-0.8-1.1c-0.1-0.1,0,0,0,0
		c0.6,0.6,1.3,1.2,2.1,1.7c1,0.5,2.2,0.9,3.6,1.2c1.4,0.2,3,0.3,4.8,0.3c1.8-0.1,3.7-0.4,5.7-0.8c3.3-0.7,6.6-1.9,9.6-3.4
		c3.1-1.5,5.9-3.2,8.3-5.1c2.4-1.9,4.4-3.9,5.8-5.9c1.4-2,2.3-4,2.5-5.8c0-0.2,0-0.4,0-0.6c0-0.2,0-0.4,0-0.6c0-0.2,0.2,0.8,0.2,0.8
		S57.4,31.1,57.5,31.6L57.5,31.6z"/>
</g>
<g>
	<path d="M9.6,90.3v-9h1.7v1.8h0c0.4-1.3,1.4-2,2.8-2v1.9c-2.2,0-2.8,1.6-2.8,3.6v3.8H9.6z"/>
	<path d="M22,90.2c-0.8,0.2-1.5,0.3-2.3,0.3c-3.2,0-4.5-2.2-4.5-5.2c0-2.5,1.1-4.3,3.7-4.3c2.2,0,3.3,1.6,3.3,3.6v0.4H17
		c0,2,1,4.1,3.3,4.1c0.6,0,1.2-0.1,1.7-0.3V90.2z M20.5,84c0-1-0.7-1.6-1.7-1.6c-0.7,0-1.4,0.4-1.7,1c-0.1,0.2-0.1,0.4-0.1,0.6H20.5
		z"/>
	<path d="M29.4,90.3v-1.4h0c-0.4,1-1.5,1.6-2.5,1.6c-2.5,0-3.1-2.5-3.1-4.6s0.6-4.9,3.2-4.9c1,0,2.1,0.5,2.4,1.5h0v-5.3h1.7v13.1
		H29.4z M29.4,85.7c0-1.3-0.3-3.4-2-3.4c-1.6,0-1.8,2.2-1.8,3.4c0,1.2,0.1,3.4,1.8,3.4C28.9,89.2,29.4,86.9,29.4,85.7z"/>
	<path class="st6" d="M38.9,90.3v-1.4h0c-0.4,1-1.5,1.6-2.5,1.6c-2.5,0-3.1-2.5-3.1-4.6s0.6-4.9,3.2-4.9c1,0,2.1,0.5,2.4,1.5h0v-5.3
		h1.7v13.1H38.9z M38.9,85.7c0-1.3-0.3-3.4-2-3.4c-1.6,0-1.8,2.2-1.8,3.4c0,1.2,0.1,3.4,1.8,3.4C38.4,89.2,38.9,86.9,38.9,85.7z"/>
	<path class="st6" d="M42.7,85.8c0-2.6,1.1-4.7,4-4.7c2.9,0,4,2.1,4,4.7s-1.1,4.7-4,4.7C43.8,90.5,42.7,88.4,42.7,85.8z M48.8,85.8
		c0-1.4-0.2-3.4-2.1-3.4s-2.1,1.9-2.1,3.4c0,1.4,0.2,3.4,2.1,3.4C48.6,89.2,48.8,87.2,48.8,85.8z"/>
	<path class="st6" d="M57.7,90.4c-0.4,0.1-0.9,0.1-1.3,0.1c-1.6,0-2.7-0.5-2.7-2.2v-5.7H52v-1.3h1.6v-2.1l1.7-1.1v3.2h2.5v1.3h-2.5
		v4.8c0,1,0.2,1.8,1.4,1.8c0.3,0,0.6,0,0.9-0.1V90.4z"/>
	<path d="M72.2,90.3L70.3,84h0l-1.8,6.3h-1.8l-2.1-9h1.7l1.4,6.6h0l2-6.6h1.3l2,6.6h0l1.4-6.6H76l-2,9H72.2z"/>
	<path d="M78.2,79.1v-1.9h2.1v1.9H78.2z M78.4,90.3v-9h1.7v9H78.4z"/>
	<path d="M88.5,90.3v-4.9c0-0.4,0-0.7,0-1.1c-0.1-0.8-0.2-1.5-1.2-1.5c-1.7,0-2.4,2.4-2.4,3.7v3.8h-1.7v-9h1.7v1.9h0
		c0.5-1.3,1.4-2.1,2.9-2.1c1.8,0,2.4,1.4,2.4,3v6.3H88.5z"/>
	<path d="M98.3,90.3v-4.9c0-0.4,0-0.7,0-1.1c-0.1-0.8-0.2-1.5-1.2-1.5c-1.7,0-2.4,2.4-2.4,3.7v3.8H93v-9h1.7v1.9h0
		c0.5-1.3,1.4-2.1,2.9-2.1c1.8,0,2.4,1.4,2.4,3v6.3H98.3z"/>
	<path d="M108.9,90.2c-0.8,0.2-1.5,0.3-2.3,0.3c-3.2,0-4.5-2.2-4.5-5.2c0-2.5,1.1-4.3,3.7-4.3c2.2,0,3.3,1.6,3.3,3.6v0.4h-5.2
		c0,2,1,4.1,3.3,4.1c0.6,0,1.2-0.1,1.7-0.3V90.2z M107.4,84c0-1-0.7-1.6-1.7-1.6c-0.7,0-1.4,0.4-1.7,1c-0.1,0.2-0.1,0.4-0.1,0.6
		H107.4z"/>
	<path d="M111.3,90.3v-9h1.7v1.8h0c0.4-1.3,1.4-2,2.8-2v1.9c-2.2,0-2.8,1.6-2.8,3.6v3.8H111.3z"/>
	<g>
		<path d="M122.8,88.8c1.6-1.3,5.8-5.2,5.8-7.7c0-1-0.6-1.8-1.8-1.8c-1.3,0-1.8,0.8-1.8,1.7h-2.1c0.1-1.3,0.9-3,3.9-3
			c2.1,0,3.7,1.2,3.7,3.3c0,3.4-3.4,5.9-5.4,7.6h5.5v1.3h-7.8V88.8z"/>
		<path d="M132.7,84.2c0-3.2,0.9-6.2,4.4-6.2c3.5,0,4.4,3.1,4.4,6.2c0,3.2-0.9,6.2-4.4,6.2C133.6,90.4,132.7,87.3,132.7,84.2z
			 M137.1,89.1c2.2,0,2.5-2.7,2.5-4.9c0-2.2-0.3-4.9-2.5-4.9c-2.2,0-2.5,2.7-2.5,4.9C134.6,86.4,134.9,89.1,137.1,89.1z"/>
		<path d="M142.9,88.8c1.6-1.3,5.8-5.2,5.8-7.7c0-1-0.6-1.8-1.8-1.8c-1.3,0-1.8,0.8-1.8,1.7h-2.1c0.1-1.3,0.9-3,3.9-3
			c2.1,0,3.7,1.2,3.7,3.3c0,3.4-3.4,5.9-5.4,7.6h5.5v1.3h-7.8V88.8z"/>
		<path d="M152.8,84.2c0-3.2,0.9-6.2,4.4-6.2c3.5,0,4.4,3.1,4.4,6.2c0,3.2-0.9,6.2-4.4,6.2C153.7,90.4,152.8,87.3,152.8,84.2z
			 M157.2,89.1c2.2,0,2.5-2.7,2.5-4.9c0-2.2-0.3-4.9-2.5-4.9c-2.2,0-2.5,2.7-2.5,4.9C154.7,86.4,155,89.1,157.2,89.1z"/>
	</g>
</g>
</svg>
